<svg id="Layer_1" data-name="Layer 1" xmlns="http://www.w3.org/2000/svg" viewBox="0 0 1250.43 522.99"><defs><style>.cls-1{fill:#fff;}.cls-2{font-size:180px;fill:#0f008a;}.cls-2,.cls-3{font-family:BerlinSansFB-Reg, Berlin Sans FB;}.cls-3{font-size:80px;}</style></defs><path class="cls-1" d="M7454.9,6842.73H7339.17a19.29,19.29,0,0,0-19.3,19.3v272a75.47,75.47,0,0,1-17.61,49l-.1.12a77.3,77.3,0,0,1-136.93-49.15V6862a19.3,19.3,0,0,0-19.3-19.3H7030.2a19.3,19.3,0,0,0-19.3,19.3v272a227.07,227.07,0,0,0,28.28,110.49,231.18,231.18,0,0,0,366.48,53.76q6.35-6.34,12.24-13.23a230.59,230.59,0,0,0,56.3-151V6862A19.3,19.3,0,0,0,7454.9,6842.73Zm-405.4,38.6h77.13v77.13H7049.5Zm386.1,252.74a193.62,193.62,0,0,1-193,193.05h-.14a191.46,191.46,0,0,1-169.37-100.95s-.05-.09-.08-.14a188.85,188.85,0,0,1-23.54-92v-137h77.13v137a116.82,116.82,0,0,0,14,55.15,1.51,1.51,0,0,0,.11.22,115.83,115.83,0,0,0,191.2,18.36,113.6,113.6,0,0,0,26.55-73.73v-137h77.13Zm0-175.61h-77.13v-77.13h77.13Z" transform="translate(-6617.33 -6842.73)"/><text class="cls-2" transform="translate(382.28 292.14)">GMCO</text><text class="cls-3" transform="translate(0 365.77)">Global Magnet Cleanup Organization</text></svg>